<?xml version="1.0" encoding="UTF-8"?>
<!DOCTYPE svg PUBLIC "-//W3C//DTD SVG 1.1//EN" "http://www.w3.org/Graphics/SVG/1.1/DTD/svg11.dtd">
<svg xmlns="http://www.w3.org/2000/svg" version="1.1" width="467px" height="85px" style="shape-rendering:geometricPrecision; text-rendering:geometricPrecision; image-rendering:optimizeQuality; fill-rule:evenodd; clip-rule:evenodd" xmlns:xlink="http://www.w3.org/1999/xlink">
<g><path style="opacity:0.042" fill="#fefefe" d="M 325.5,2.5 C 250.826,1.83638 176.493,2.50305 102.5,4.5C 102.5,4.83333 102.5,5.16667 102.5,5.5C 101.566,4.43236 101.232,3.09903 101.5,1.5C 176.335,1.16742 251.002,1.50075 325.5,2.5 Z"/></g>
<g><path style="opacity:1" fill="#000000" d="M 325.5,2.5 C 251.507,4.49695 177.174,5.16362 102.5,4.5C 176.493,2.50305 250.826,1.83638 325.5,2.5 Z"/></g>
<g><path style="opacity:0.962" fill="#565656" d="M 325.5,2.5 C 326.404,3.20895 326.737,4.20895 326.5,5.5C 251.47,6.11126 176.803,6.11126 102.5,5.5C 102.5,5.16667 102.5,4.83333 102.5,4.5C 177.174,5.16362 251.507,4.49695 325.5,2.5 Z"/></g>
<g><path style="opacity:0.263" fill="#e1e8f3" d="M 405.5,13.5 C 404.486,14.6737 403.153,15.3404 401.5,15.5C 397.777,18.5515 393.777,21.2181 389.5,23.5C 389.833,22.8333 390.167,22.1667 390.5,21.5C 393.433,19.3548 396.433,17.1882 399.5,15C 397.5,14.6667 395.5,14.3333 393.5,14C 396.5,13.6667 399.5,13.3333 402.5,13C 396.509,12.5005 390.509,12.3338 384.5,12.5C 384.611,11.8826 384.944,11.3826 385.5,11C 383.668,9.51137 382.835,7.67804 383,5.5C 384.833,7.33333 386.667,9.16667 388.5,11C 393.5,11.3333 398.5,11.6667 403.5,12C 404.044,12.7172 404.711,13.2172 405.5,13.5 Z"/></g>
<g><path style="opacity:1" fill="#1c50ad" d="M 384.5,12.5 C 390.509,12.3338 396.509,12.5005 402.5,13C 399.5,13.3333 396.5,13.6667 393.5,14C 395.5,14.3333 397.5,14.6667 399.5,15C 396.433,17.1882 393.433,19.3548 390.5,21.5C 389.833,21.5 389.167,21.5 388.5,21.5C 381.437,21.2122 374.437,21.7122 367.5,23C 370.817,23.4983 374.15,23.665 377.5,23.5C 377.833,23.5 378.167,23.5 378.5,23.5C 379.833,24.1667 381.167,24.8333 382.5,25.5C 377.697,27.0543 372.697,28.2209 367.5,29C 370.23,29.7284 372.897,29.5617 375.5,28.5C 375.833,28.6667 376.167,28.8333 376.5,29C 375.643,29.6891 374.977,30.5224 374.5,31.5C 373.02,32.1131 371.687,32.4464 370.5,32.5C 373.187,33.2604 375.853,33.9271 378.5,34.5C 377.093,36.3083 375.926,38.3083 375,40.5C 374.329,39.7476 373.496,39.4142 372.5,39.5C 365.124,39.2743 357.791,39.6076 350.5,40.5C 348.565,39.8505 346.565,39.5172 344.5,39.5C 344.67,38.1779 344.337,37.0113 343.5,36C 344.872,35.5983 346.205,35.0983 347.5,34.5C 348.382,35.7598 349.382,36.9264 350.5,38C 355.833,38.6667 361.167,38.6667 366.5,38C 367.167,37.3333 367.833,36.6667 368.5,36C 362.973,37.2877 357.306,37.6211 351.5,37C 350.023,35.1879 348.69,33.3545 347.5,31.5C 352.934,30.0437 358.6,29.2103 364.5,29C 357.122,28.8883 349.788,28.7216 342.5,28.5C 347.986,26.3765 353.653,24.7099 359.5,23.5C 358.388,22.7348 357.721,21.7348 357.5,20.5C 365.528,14.9053 374.528,12.2386 384.5,12.5 Z"/></g>
<g><path style="opacity:0.565" fill="#a6bfe1" d="M 385.5,14.5 C 394.432,14.6959 394.099,15.3626 384.5,16.5C 383.5,16.3333 382.5,16.1667 381.5,16C 383.058,15.79 384.391,15.29 385.5,14.5 Z"/></g>
<g><path style="opacity:0.596" fill="#88a1cf" d="M 405.5,13.5 C 406.209,12.596 407.209,12.2627 408.5,12.5C 412.893,12.4568 413.226,12.9568 409.5,14C 411.436,14.813 413.436,15.313 415.5,15.5C 414.5,16.1667 413.5,16.8333 412.5,17.5C 411.778,17.9175 411.278,18.5842 411,19.5C 410.502,17.4556 409.335,16.1223 407.5,15.5C 408.66,13.7973 407.993,13.1307 405.5,13.5 Z"/></g>
<g><path style="opacity:0.298" fill="#eff3f9" d="M 407.5,15.5 C 406.833,16.8333 405.833,17.8333 404.5,18.5C 404.167,18.5 403.833,18.5 403.5,18.5C 404.262,16.7376 405.596,15.7376 407.5,15.5 Z"/></g>
<g><path style="opacity:0.056" fill="#dde5ef" d="M 408.5,12.5 C 414.117,11.3638 419.617,11.3638 425,12.5C 430.423,15.9187 435.256,20.0854 439.5,25C 441.833,24.6667 444.167,24.3333 446.5,24C 448.553,25.6779 448.887,27.5112 447.5,29.5C 446.644,26.4869 444.811,25.8203 442,27.5C 439.372,26.7231 436.872,25.7231 434.5,24.5C 434.5,24.1667 434.5,23.8333 434.5,23.5C 435.833,23.1667 435.833,22.8333 434.5,22.5C 431.798,19.6443 428.631,17.3109 425,15.5C 424.53,16.5768 424.697,17.5768 425.5,18.5C 424.833,18.5 424.167,18.5 423.5,18.5C 423.217,17.7109 422.717,17.0442 422,16.5C 421.196,17.8045 420.029,18.4712 418.5,18.5C 416.547,17.8444 414.547,17.5111 412.5,17.5C 413.5,16.8333 414.5,16.1667 415.5,15.5C 413.436,15.313 411.436,14.813 409.5,14C 413.226,12.9568 412.893,12.4568 408.5,12.5 Z M 415.5,15.5 C 417.185,14.156 418.852,14.3227 420.5,16C 418.803,16.3845 417.137,16.2178 415.5,15.5 Z"/></g>
<g><path style="opacity:0.484" fill="#c9d5ea" d="M 388.5,21.5 C 384.833,22.1667 381.167,22.8333 377.5,23.5C 374.15,23.665 370.817,23.4983 367.5,23C 374.437,21.7122 381.437,21.2122 388.5,21.5 Z"/></g>
<g><path style="opacity:1" fill="#134eac" d="M 407.5,15.5 C 409.335,16.1223 410.502,17.4556 411,19.5C 411.278,18.5842 411.778,17.9175 412.5,17.5C 414.547,17.5111 416.547,17.8444 418.5,18.5C 420.029,18.4712 421.196,17.8045 422,16.5C 422.717,17.0442 423.217,17.7109 423.5,18.5C 424.072,19.9733 424.905,21.3066 426,22.5C 426.333,22.1667 426.667,21.8333 427,21.5C 429.333,22.8333 431.667,24.1667 434,25.5C 434.399,25.2716 434.565,24.9382 434.5,24.5C 436.872,25.7231 439.372,26.7231 442,27.5C 444.811,25.8203 446.644,26.4869 447.5,29.5C 446.069,29.8807 445.236,30.8807 445,32.5C 443.989,31.6634 442.822,31.33 441.5,31.5C 441.167,31.5 440.833,31.5 440.5,31.5C 437.583,30.5826 434.583,29.916 431.5,29.5C 431.918,28.7784 432.584,28.2784 433.5,28C 432.906,27.5357 432.239,27.369 431.5,27.5C 428.373,26.4192 425.04,25.7526 421.5,25.5C 417.901,24.6561 414.234,24.3227 410.5,24.5C 409.833,24.5 409.167,24.5 408.5,24.5C 407.5,22.8333 406.167,21.5 404.5,20.5C 404.5,19.8333 404.5,19.1667 404.5,18.5C 405.833,17.8333 406.833,16.8333 407.5,15.5 Z"/></g>
<g><path style="opacity:0.765" fill="#a4b9dc" d="M 423.5,18.5 C 424.167,18.5 424.833,18.5 425.5,18.5C 428.648,19.5758 431.648,20.9091 434.5,22.5C 434.5,22.8333 434.5,23.1667 434.5,23.5C 434.5,23.8333 434.5,24.1667 434.5,24.5C 434.565,24.9382 434.399,25.2716 434,25.5C 431.667,24.1667 429.333,22.8333 427,21.5C 426.667,21.8333 426.333,22.1667 426,22.5C 424.905,21.3066 424.072,19.9733 423.5,18.5 Z"/></g>
<g><path style="opacity:0.514" fill="#becadc" d="M 378.5,23.5 C 381.833,23.5 385.167,23.5 388.5,23.5C 386.626,24.2852 384.626,24.9518 382.5,25.5C 381.167,24.8333 379.833,24.1667 378.5,23.5 Z"/></g>
<g><path style="opacity:0.218" fill="#e7ecf3" d="M 403.5,20.5 C 403.833,20.5 404.167,20.5 404.5,20.5C 406.167,21.5 407.5,22.8333 408.5,24.5C 405.167,25.1667 401.833,25.8333 398.5,26.5C 397.325,26.719 396.325,26.3857 395.5,25.5C 399.122,24.6747 402.789,24.1747 406.5,24C 405.29,22.9609 404.29,21.7942 403.5,20.5 Z"/></g>
<g><path style="opacity:0.585" fill="#b2b2b2" d="M 30.5,26.5 C 21.1136,26.2201 11.7803,26.5534 2.5,27.5C 2.61071,26.8826 2.94404,26.3826 3.5,26C 12.6762,25.176 21.6762,25.3427 30.5,26.5 Z"/></g>
<g><path style="opacity:0.583" fill="#acacac" d="M 70.5,25.5 C 70.5,25.8333 70.5,26.1667 70.5,26.5C 60.1148,26.2145 49.7815,26.5478 39.5,27.5C 39.6107,26.8826 39.944,26.3826 40.5,26C 50.4944,25.5002 60.4944,25.3335 70.5,25.5 Z"/></g>
<g><path style="opacity:0.004" fill="#dddddd" d="M 149.5,26.5 C 150.946,25.3871 152.613,25.2204 154.5,26C 160.369,32.0362 166.369,37.8695 172.5,43.5C 173.11,44.391 173.443,45.391 173.5,46.5C 166.702,40.2027 160.035,33.7027 153.5,27C 152.207,26.51 150.873,26.3433 149.5,26.5 Z"/></g>
<g><path style="opacity:0.592" fill="#afafaf" d="M 215.5,26.5 C 206.114,26.2201 196.78,26.5534 187.5,27.5C 187.611,26.8826 187.944,26.3826 188.5,26C 197.676,25.176 206.676,25.3427 215.5,26.5 Z"/></g>
<g><path style="opacity:1" fill="#1c1c1c" d="M 30.5,26.5 C 32.1733,27.343 33.34,28.6763 34,30.5C 34.8321,40.1839 34.6655,49.8505 33.5,59.5C 31.5682,60.0328 29.5682,60.0328 27.5,59.5C 27.5,50.5 27.5,41.5 27.5,32.5C 24.9407,32.1984 22.6074,32.5318 20.5,33.5C 20.5,42.1667 20.5,50.8333 20.5,59.5C 18.2075,59.2436 16.0408,59.5769 14,60.5C 13.5002,51.5062 13.3336,42.5062 13.5,33.5C 11.3926,32.5318 9.0593,32.1984 6.5,32.5C 6.5,41.5 6.5,50.5 6.5,59.5C 4.03136,60.0671 1.69802,60.0671 -0.5,59.5C -0.5,49.8333 -0.5,40.1667 -0.5,30.5C 0.271873,29.3065 1.27187,28.3065 2.5,27.5C 11.7803,26.5534 21.1136,26.2201 30.5,26.5 Z"/></g>
<g><path style="opacity:1" fill="#121212" d="M 70.5,26.5 C 70.5,28.5 70.5,30.5 70.5,32.5C 61.5,32.5 52.5,32.5 43.5,32.5C 43.5,34.8333 43.5,37.1667 43.5,39.5C 52.5,39.5 61.5,39.5 70.5,39.5C 70.5,41.5 70.5,43.5 70.5,45.5C 61.5,45.5 52.5,45.5 43.5,45.5C 43.5,48.1667 43.5,50.8333 43.5,53.5C 52.5,53.5 61.5,53.5 70.5,53.5C 70.5,55.5 70.5,57.5 70.5,59.5C 63.9898,59.5841 57.4898,59.9174 51,60.5C 47.1952,60.6963 43.6952,60.0296 40.5,58.5C 40.1667,57.5 39.5,56.8333 38.5,56.5C 37.7784,56.0825 37.2784,55.4158 37,54.5C 36.1772,46.3225 36.3439,38.3225 37.5,30.5C 38.9063,30.0269 39.573,29.0269 39.5,27.5C 49.7815,26.5478 60.1148,26.2145 70.5,26.5 Z"/></g>
<g><path style="opacity:1" fill="#131313" d="M 85.5,38.5 C 89.1667,34.1667 93.1667,30.1667 97.5,26.5C 100.833,26.5 104.167,26.5 107.5,26.5C 107.5,28.5 107.5,30.5 107.5,32.5C 104.941,32.1984 102.607,32.5318 100.5,33.5C 98.1667,36.1667 95.8333,38.8333 93.5,41.5C 92.6618,41.8417 92.3284,42.5084 92.5,43.5C 95.423,50.1104 100.423,53.4438 107.5,53.5C 107.5,55.5 107.5,57.5 107.5,59.5C 104.5,60.8333 101.5,60.8333 98.5,59.5C 94.3701,54.8688 90.0367,50.3688 85.5,46C 83.8659,45.5065 82.1992,45.3398 80.5,45.5C 80.5,50.1667 80.5,54.8333 80.5,59.5C 78.5,60.8333 76.5,60.8333 74.5,59.5C 74.5,48.5 74.5,37.5 74.5,26.5C 76.5,26.5 78.5,26.5 80.5,26.5C 80.5,30.8333 80.5,35.1667 80.5,39.5C 82.4147,39.7845 84.0813,39.4511 85.5,38.5 Z"/></g>
<g><path style="opacity:1" fill="#141414" d="M 111.5,26.5 C 122.5,26.5 133.5,26.5 144.5,26.5C 144.5,28.5 144.5,30.5 144.5,32.5C 140.167,32.5 135.833,32.5 131.5,32.5C 130.167,39.1667 130.167,45.8333 131.5,52.5C 135.634,53.4849 139.968,53.8182 144.5,53.5C 144.5,55.5 144.5,57.5 144.5,59.5C 133.776,60.7685 122.776,60.7685 111.5,59.5C 111.5,57.5 111.5,55.5 111.5,53.5C 116.032,53.8182 120.366,53.4849 124.5,52.5C 124.5,46.1667 124.5,39.8333 124.5,33.5C 120.366,32.5151 116.032,32.1818 111.5,32.5C 111.5,30.5 111.5,28.5 111.5,26.5 Z"/></g>
<g><path style="opacity:1" fill="#141414" d="M 149.5,26.5 C 150.873,26.3433 152.207,26.51 153.5,27C 160.035,33.7027 166.702,40.2027 173.5,46.5C 173.56,47.0431 173.893,47.3764 174.5,47.5C 175.497,40.5316 175.83,33.5316 175.5,26.5C 177.5,26.5 179.5,26.5 181.5,26.5C 181.5,36.8333 181.5,47.1667 181.5,57.5C 179.208,58.6861 176.874,58.6861 174.5,57.5C 173.5,57.1667 172.833,56.5 172.5,55.5C 168.833,49.8333 164.167,45.1667 158.5,41.5C 158.167,41.5 157.833,41.5 157.5,41.5C 157.167,40.8333 156.833,40.1667 156.5,39.5C 156.217,38.7109 155.717,38.0442 155,37.5C 154.5,44.8258 154.334,52.1591 154.5,59.5C 152.643,60.7537 150.643,60.7537 148.5,59.5C 147.334,48.8489 147.168,38.1823 148,27.5C 148.383,26.944 148.883,26.6107 149.5,26.5 Z"/></g>
<g><path style="opacity:0.276" fill="#e4e4e4" d="M 185.5,30.5 C 185.5,40.1667 185.5,49.8333 185.5,59.5C 183.801,59.4729 182.467,58.8062 181.5,57.5C 181.5,47.1667 181.5,36.8333 181.5,26.5C 179.5,26.5 177.5,26.5 175.5,26.5C 175.83,33.5316 175.497,40.5316 174.5,47.5C 173.893,47.3764 173.56,47.0431 173.5,46.5C 174.491,39.6866 174.825,32.6866 174.5,25.5C 177.167,25.5 179.833,25.5 182.5,25.5C 182.334,35.8387 182.5,46.172 183,56.5C 183.333,56.8333 183.667,57.1667 184,57.5C 184.17,48.324 184.67,39.324 185.5,30.5 Z"/></g>
<g><path style="opacity:1" fill="#131313" d="M 215.5,26.5 C 217.173,27.343 218.34,28.6763 219,30.5C 219.832,40.1839 219.665,49.8505 218.5,59.5C 216.568,60.0328 214.568,60.0328 212.5,59.5C 212.5,54.8333 212.5,50.1667 212.5,45.5C 205.5,45.5 198.5,45.5 191.5,45.5C 191.5,50.1667 191.5,54.8333 191.5,59.5C 189.611,60.7416 187.611,60.7416 185.5,59.5C 185.5,49.8333 185.5,40.1667 185.5,30.5C 186.906,30.0269 187.573,29.0269 187.5,27.5C 196.78,26.5534 206.114,26.2201 215.5,26.5 Z M 192.5,33.5 C 198.833,33.5 205.167,33.5 211.5,33.5C 211.5,35.1667 211.5,36.8333 211.5,38.5C 205.167,38.5 198.833,38.5 192.5,38.5C 192.5,36.8333 192.5,35.1667 192.5,33.5 Z"/></g>
<g><path style="opacity:1" fill="#040404" d="M 255.5,59.5 C 253.5,59.5 251.5,59.5 249.5,59.5C 249.5,54.8333 249.5,50.1667 249.5,45.5C 242.5,45.5 235.5,45.5 228.5,45.5C 228.5,50.1667 228.5,54.8333 228.5,59.5C 226.611,60.7416 224.611,60.7416 222.5,59.5C 222.5,48.5 222.5,37.5 222.5,26.5C 224.5,26.5 226.5,26.5 228.5,26.5C 228.5,30.8333 228.5,35.1667 228.5,39.5C 235.5,39.5 242.5,39.5 249.5,39.5C 249.5,35.1667 249.5,30.8333 249.5,26.5C 251.5,26.5 253.5,26.5 255.5,26.5C 255.5,37.5 255.5,48.5 255.5,59.5 Z"/></g>
<g><path style="opacity:1" fill="#0a0a0a" d="M 265.5,52.5 C 272.313,53.4912 279.313,53.8245 286.5,53.5C 286.5,44.5 286.5,35.5 286.5,26.5C 288.5,26.5 290.5,26.5 292.5,26.5C 292.5,36.1667 292.5,45.8333 292.5,55.5C 292.5,56.1667 292.167,56.5 291.5,56.5C 290.5,56.8333 289.833,57.5 289.5,58.5C 283.335,59.339 277.002,60.0056 270.5,60.5C 267.562,60.4324 264.895,59.7658 262.5,58.5C 262.167,57.5 261.5,56.8333 260.5,56.5C 259.662,56.1583 259.328,55.4916 259.5,54.5C 259.5,45.1667 259.5,35.8333 259.5,26.5C 261.5,26.5 263.5,26.5 265.5,26.5C 265.5,35.1667 265.5,43.8333 265.5,52.5 Z"/></g>
<g><path style="opacity:0.27" fill="#cccccc" d="M 293.5,55.5 C 293.167,55.5 292.833,55.5 292.5,55.5C 292.5,45.8333 292.5,36.1667 292.5,26.5C 290.5,26.5 288.5,26.5 286.5,26.5C 286.5,35.5 286.5,44.5 286.5,53.5C 279.313,53.8245 272.313,53.4912 265.5,52.5C 265.833,52.5 266.167,52.5 266.5,52.5C 272.833,52.5 279.167,52.5 285.5,52.5C 285.5,43.5 285.5,34.5 285.5,25.5C 288.167,25.5 290.833,25.5 293.5,25.5C 293.5,35.5 293.5,45.5 293.5,55.5 Z"/></g>
<g><path style="opacity:0.301" fill="#d5d5d5" d="M 326.5,26.5 C 316.5,26.5 306.5,26.5 296.5,26.5C 296.5,37.5 296.5,48.5 296.5,59.5C 295.505,48.3456 295.172,37.0123 295.5,25.5C 306.014,25.1724 316.347,25.5058 326.5,26.5 Z"/></g>
<g><path style="opacity:1" fill="#131313" d="M 326.5,26.5 C 328.173,27.343 329.34,28.6763 330,30.5C 330.81,34.3575 330.643,38.0242 329.5,41.5C 326.54,42.032 326.207,42.6987 328.5,43.5C 329.117,43.6107 329.617,43.944 330,44.5C 330.167,46.1667 330.333,47.8333 330.5,49.5C 330.684,52.2046 330.017,54.5379 328.5,56.5C 327.5,56.8333 326.833,57.5 326.5,58.5C 325.088,59.5325 323.422,60.1992 321.5,60.5C 313.169,60.0557 304.836,59.7224 296.5,59.5C 296.5,48.5 296.5,37.5 296.5,26.5C 306.5,26.5 316.5,26.5 326.5,26.5 Z M 303.5,33.5 C 309.833,33.5 316.167,33.5 322.5,33.5C 322.5,35.1667 322.5,36.8333 322.5,38.5C 316.167,38.5 309.833,38.5 303.5,38.5C 303.5,36.8333 303.5,35.1667 303.5,33.5 Z M 303.5,46.5 C 309.833,46.5 316.167,46.5 322.5,46.5C 322.5,48.5 322.5,50.5 322.5,52.5C 316.167,52.5 309.833,52.5 303.5,52.5C 303.5,50.5 303.5,48.5 303.5,46.5 Z"/></g>
<g><path style="opacity:0.69" fill="#698bc7" d="M 421.5,25.5 C 425.04,25.7526 428.373,26.4192 431.5,27.5C 426.826,28.7175 422.159,28.5509 417.5,27C 419.058,26.79 420.391,26.29 421.5,25.5 Z"/></g>
<g><path style="opacity:0.006" fill="#fefffe" d="M 183.5,27.5 C 184.525,27.8966 184.692,28.5632 184,29.5C 183.536,28.9056 183.369,28.2389 183.5,27.5 Z"/></g>
<g><path style="opacity:0.784" fill="#7c9ed5" d="M 390.5,26.5 C 393.152,26.4095 395.485,27.0762 397.5,28.5C 396.833,28.8333 396.167,29.1667 395.5,29.5C 394.295,28.3143 392.961,28.3143 391.5,29.5C 388.695,28.6805 385.695,28.1805 382.5,28C 385.365,27.8171 388.031,27.3171 390.5,26.5 Z"/></g>
<g><path style="opacity:1" fill="#3c5caf" d="M 405.5,13.5 C 407.993,13.1307 408.66,13.7973 407.5,15.5C 405.596,15.7376 404.262,16.7376 403.5,18.5C 403.5,19.1667 403.5,19.8333 403.5,20.5C 404.29,21.7942 405.29,22.9609 406.5,24C 402.789,24.1747 399.122,24.6747 395.5,25.5C 396.325,26.3857 397.325,26.719 398.5,26.5C 402.548,26.3946 406.548,26.7279 410.5,27.5C 411.167,28.5 411.833,29.5 412.5,30.5C 407.29,30.3916 402.29,29.7249 397.5,28.5C 395.485,27.0762 393.152,26.4095 390.5,26.5C 387.615,26.8064 384.948,26.4731 382.5,25.5C 384.626,24.9518 386.626,24.2852 388.5,23.5C 388.833,23.5 389.167,23.5 389.5,23.5C 393.777,21.2181 397.777,18.5515 401.5,15.5C 403.153,15.3404 404.486,14.6737 405.5,13.5 Z"/></g>
<g><path style="opacity:0.004" fill="#fefffe" d="M 219.5,28.5 C 220.833,29.1667 220.833,29.1667 219.5,28.5 Z"/></g>
<g><path style="opacity:0.722" fill="#878787" d="M 39.5,27.5 C 39.573,29.0269 38.9063,30.0269 37.5,30.5C 37.427,28.9731 38.0937,27.9731 39.5,27.5 Z"/></g>
<g><path style="opacity:0.729" fill="#848484" d="M 187.5,27.5 C 187.573,29.0269 186.906,30.0269 185.5,30.5C 185.427,28.9731 186.094,27.9731 187.5,27.5 Z"/></g>
<g><path style="opacity:0.239" fill="#bbcbe6" d="M 357.5,20.5 C 357.721,21.7348 358.388,22.7348 359.5,23.5C 353.653,24.7099 347.986,26.3765 342.5,28.5C 349.788,28.7216 357.122,28.8883 364.5,29C 358.6,29.2103 352.934,30.0437 347.5,31.5C 348.69,33.3545 350.023,35.1879 351.5,37C 357.306,37.6211 362.973,37.2877 368.5,36C 367.833,36.6667 367.167,37.3333 366.5,38C 361.167,38.6667 355.833,38.6667 350.5,38C 349.382,36.9264 348.382,35.7598 347.5,34.5C 346.205,35.0983 344.872,35.5983 343.5,36C 344.337,37.0113 344.67,38.1779 344.5,39.5C 346.565,39.5172 348.565,39.8505 350.5,40.5C 350.5,40.8333 350.5,41.1667 350.5,41.5C 346.758,42.2743 344.258,40.941 343,37.5C 341.887,36.695 340.721,36.0283 339.5,35.5C 339.02,32.3148 339.686,29.4815 341.5,27C 346.784,24.6478 352.117,22.4811 357.5,20.5 Z"/></g>
<g><path style="opacity:0.282" fill="#c7d5ea" d="M 382.5,25.5 C 384.948,26.4731 387.615,26.8064 390.5,26.5C 388.031,27.3171 385.365,27.8171 382.5,28C 385.695,28.1805 388.695,28.6805 391.5,29.5C 389.833,29.5 388.167,29.5 386.5,29.5C 384.292,31.1429 382.459,30.8096 381,28.5C 377.642,29.5414 376.809,31.5414 378.5,34.5C 375.853,33.9271 373.187,33.2604 370.5,32.5C 371.687,32.4464 373.02,32.1131 374.5,31.5C 374.977,30.5224 375.643,29.6891 376.5,29C 376.167,28.8333 375.833,28.6667 375.5,28.5C 372.897,29.5617 370.23,29.7284 367.5,29C 372.697,28.2209 377.697,27.0543 382.5,25.5 Z"/></g>
<g><path style="opacity:0.471" fill="#8da8d5" d="M 386.5,29.5 C 386.918,30.2216 387.584,30.7216 388.5,31C 385.833,31.6667 385.833,32.3333 388.5,33C 387.906,33.4643 387.239,33.631 386.5,33.5C 383.904,34.2653 381.237,34.5987 378.5,34.5C 376.809,31.5414 377.642,29.5414 381,28.5C 382.459,30.8096 384.292,31.1429 386.5,29.5 Z"/></g>
<g><path style="opacity:0.302" fill="#d6deed" d="M 410.5,24.5 C 414.234,24.3227 417.901,24.6561 421.5,25.5C 420.391,26.29 419.058,26.79 417.5,27C 422.159,28.5509 426.826,28.7175 431.5,27.5C 432.239,27.369 432.906,27.5357 433.5,28C 432.584,28.2784 431.918,28.7784 431.5,29.5C 430.833,29.5 430.5,29.8333 430.5,30.5C 425.436,29.2503 420.436,29.4169 415.5,31C 416.793,31.49 418.127,31.6567 419.5,31.5C 418.391,32.29 417.058,32.79 415.5,33C 416.627,34.7533 417.627,36.5866 418.5,38.5C 422.647,39.167 426.647,39.8337 430.5,40.5C 426.671,39.931 423.337,40.5977 420.5,42.5C 421.404,43.209 421.737,44.209 421.5,45.5C 421.167,45.5 420.833,45.5 420.5,45.5C 419.833,45.5 419.167,45.5 418.5,45.5C 418.443,44.391 418.11,43.391 417.5,42.5C 418.833,42.1667 418.833,41.8333 417.5,41.5C 416.833,41.5 416.5,41.1667 416.5,40.5C 417.043,40.44 417.376,40.1067 417.5,39.5C 415.773,36.7127 414.606,33.7127 414,30.5C 413.31,31.7383 412.81,31.7383 412.5,30.5C 411.833,29.5 411.167,28.5 410.5,27.5C 412.199,27.6602 413.866,27.4935 415.5,27C 413.685,26.2432 412.019,25.4098 410.5,24.5 Z"/></g>
<g><path style="opacity:1" fill="#4969af" d="M 430.5,30.5 C 430.833,30.5 431.167,30.5 431.5,30.5C 436.704,31.9774 436.371,32.6441 430.5,32.5C 426.785,32.577 423.119,32.2436 419.5,31.5C 418.127,31.6567 416.793,31.49 415.5,31C 420.436,29.4169 425.436,29.2503 430.5,30.5 Z"/></g>
<g><path style="opacity:1" fill="#014aa2" d="M 347.5,31.5 C 345.074,35.7084 343.741,35.375 343.5,30.5C 344.959,30.4326 346.292,30.7659 347.5,31.5 Z"/></g>
<g><path style="opacity:0.267" fill="#d6dfec" d="M 431.5,30.5 C 431.5,30.1667 431.5,29.8333 431.5,29.5C 434.583,29.916 437.583,30.5826 440.5,31.5C 440.5,31.8333 440.5,32.1667 440.5,32.5C 437.075,32.3668 436.742,33.0335 439.5,34.5C 437.451,35.6414 435.451,35.6414 433.5,34.5C 432.5,33.8333 431.5,33.1667 430.5,32.5C 436.371,32.6441 436.704,31.9774 431.5,30.5 Z"/></g>
<g><path style="opacity:0.115" fill="#e2e2e2" d="M 97.5,26.5 C 100.962,25.5184 104.629,25.185 108.5,25.5C 108.5,28.1667 108.5,30.8333 108.5,33.5C 105.833,33.5 103.167,33.5 100.5,33.5C 102.607,32.5318 104.941,32.1984 107.5,32.5C 107.5,30.5 107.5,28.5 107.5,26.5C 104.167,26.5 100.833,26.5 97.5,26.5 Z"/></g>
<g><path style="opacity:0.1" fill="#f8f8f8" d="M 111.5,25.5 C 111.5,25.8333 111.5,26.1667 111.5,26.5C 111.5,28.5 111.5,30.5 111.5,32.5C 116.032,32.1818 120.366,32.5151 124.5,33.5C 123.761,33.369 123.094,33.5357 122.5,34C 123.696,34.6543 123.696,35.1543 122.5,35.5C 118.742,33.8301 114.742,32.9968 110.5,33C 109.309,30.2741 109.642,27.7741 111.5,25.5 Z"/></g>
<g><path style="opacity:0.106" fill="#dadada" d="M 111.5,26.5 C 111.5,26.1667 111.5,25.8333 111.5,25.5C 122.833,25.5 134.167,25.5 145.5,25.5C 145.543,28.5865 145.71,31.5865 146,34.5C 141.263,33.5308 136.43,33.1975 131.5,33.5C 131.5,33.1667 131.5,32.8333 131.5,32.5C 135.833,32.5 140.167,32.5 144.5,32.5C 144.5,30.5 144.5,28.5 144.5,26.5C 133.5,26.5 122.5,26.5 111.5,26.5 Z"/></g>
<g><path style="opacity:0.065" fill="#dce4f1" d="M 447.5,29.5 C 448.574,30.8846 449.907,32.0513 451.5,33C 450.402,33.7697 450.402,34.603 451.5,35.5C 447.603,34.9448 443.937,33.9448 440.5,32.5C 441.167,32.5 441.5,32.1667 441.5,31.5C 442.822,31.33 443.989,31.6634 445,32.5C 445.236,30.8807 446.069,29.8807 447.5,29.5 Z"/></g>
<g><path style="opacity:0.396" fill="#dedede" d="M 13.5,33.5 C 12.7611,33.369 12.0944,33.5357 11.5,34C 12.6956,34.6543 12.6956,35.1543 11.5,35.5C 10.4763,34.1468 9.14297,33.4802 7.5,33.5C 7.82636,42.3494 7.49302,51.0161 6.5,59.5C 6.5,50.5 6.5,41.5 6.5,32.5C 9.0593,32.1984 11.3926,32.5318 13.5,33.5 Z"/></g>
<g><path style="opacity:0.429" fill="#dadada" d="M 20.5,33.5 C 22.6074,32.5318 24.9407,32.1984 27.5,32.5C 27.5,41.5 27.5,50.5 27.5,59.5C 26.8334,50.9907 26.1667,42.3241 25.5,33.5C 25.0894,34.2624 24.9227,35.2624 25,36.5C 24.2496,35.8742 23.4162,35.3742 22.5,35C 22.8333,34.6667 23.1667,34.3333 23.5,34C 22.552,33.5172 21.552,33.3505 20.5,33.5 Z"/></g>
<g><path style="opacity:1" fill="#0949aa" d="M 340.5,29.5 C 342.561,30.7514 342.894,32.4181 341.5,34.5C 340.548,32.9547 340.215,31.288 340.5,29.5 Z"/></g>
<g><path style="opacity:1" fill="#6478bc" d="M 395.5,29.5 C 392.792,32.2085 389.792,34.5419 386.5,36.5C 386.5,35.5 386.5,34.5 386.5,33.5C 387.239,33.631 387.906,33.4643 388.5,33C 385.833,32.3333 385.833,31.6667 388.5,31C 387.584,30.7216 386.918,30.2216 386.5,29.5C 388.167,29.5 389.833,29.5 391.5,29.5C 392.961,28.3143 394.295,28.3143 395.5,29.5 Z"/></g>
<g><path style="opacity:1" fill="#6076b7" d="M 440.5,32.5 C 443.937,33.9448 447.603,34.9448 451.5,35.5C 452.833,35.8333 452.833,36.1667 451.5,36.5C 450.5,36.5 449.5,36.5 448.5,36.5C 445.219,36.5797 442.219,35.913 439.5,34.5C 436.742,33.0335 437.075,32.3668 440.5,32.5 Z"/></g>
<g><path style="opacity:1" fill="#094aac" d="M 386.5,33.5 C 386.5,34.5 386.5,35.5 386.5,36.5C 386.5,36.8333 386.5,37.1667 386.5,37.5C 385.662,37.8417 385.328,38.5084 385.5,39.5C 384.522,39.811 383.855,40.4777 383.5,41.5C 385.567,42.1341 387.4,43.1341 389,44.5C 392.686,44.0918 396.52,44.0918 400.5,44.5C 398.61,45.4238 397.11,46.7571 396,48.5C 393.688,46.5359 391.188,46.2026 388.5,47.5C 389.952,48.9397 390.952,50.6064 391.5,52.5C 389.833,52.5 388.167,52.5 386.5,52.5C 385.566,51.4324 385.232,50.099 385.5,48.5C 382.753,48.8134 380.086,48.48 377.5,47.5C 378.381,46.0295 379.714,45.1962 381.5,45C 379.098,44.1859 376.765,44.3526 374.5,45.5C 375.807,46.865 375.807,48.1984 374.5,49.5C 362.5,49.5 350.5,49.5 338.5,49.5C 339.105,45.685 339.105,42.0183 338.5,38.5C 338.263,37.209 338.596,36.209 339.5,35.5C 340.721,36.0283 341.887,36.695 343,37.5C 344.258,40.941 346.758,42.2743 350.5,41.5C 358.047,41.5945 365.38,40.9278 372.5,39.5C 373.496,39.4142 374.329,39.7476 375,40.5C 375.926,38.3083 377.093,36.3083 378.5,34.5C 381.237,34.5987 383.904,34.2653 386.5,33.5 Z"/></g>
<g><path style="opacity:0.835" fill="#5c5c5c" d="M 131.5,32.5 C 131.5,32.8333 131.5,33.1667 131.5,33.5C 131.5,39.5 131.5,45.5 131.5,51.5C 131.5,51.8333 131.5,52.1667 131.5,52.5C 130.167,45.8333 130.167,39.1667 131.5,32.5 Z"/></g>
<g><path style="opacity:0.008" fill="#fefffe" d="M 82.5,37.5 C 82.8966,36.475 83.5632,36.3083 84.5,37C 83.9056,37.4643 83.2389,37.631 82.5,37.5 Z"/></g>
<g><path style="opacity:0.361" fill="#d5ddeb" d="M 433.5,34.5 C 433.414,35.4959 433.748,36.3292 434.5,37C 438.436,38.0291 442.102,39.5291 445.5,41.5C 444.779,43.3818 443.779,43.7152 442.5,42.5C 440.331,40.5838 437.665,39.2504 434.5,38.5C 433.702,38.9569 433.369,39.6236 433.5,40.5C 433.167,40.5 432.833,40.5 432.5,40.5C 430.525,38.91 428.192,37.7433 425.5,37C 427.541,35.2589 429.708,35.0922 432,36.5C 432.278,35.5842 432.778,34.9175 433.5,34.5 Z"/></g>
<g><path style="opacity:0.135" fill="#f7f8fa" d="M 448.5,36.5 C 449.5,36.5 450.5,36.5 451.5,36.5C 450.032,37.7791 449.365,39.4458 449.5,41.5C 449.167,41.5 448.833,41.5 448.5,41.5C 448.5,39.8333 448.5,38.1667 448.5,36.5 Z"/></g>
<g><path style="opacity:0.154" fill="#f5f5f5" d="M 70.5,25.5 C 71.4731,27.9479 71.8064,30.6146 71.5,33.5C 62.5,33.5 53.5,33.5 44.5,33.5C 44.5,35.1667 44.5,36.8333 44.5,38.5C 53.5,38.5 62.5,38.5 71.5,38.5C 71.8064,41.3854 71.4731,44.0521 70.5,46.5C 70.5,46.1667 70.5,45.8333 70.5,45.5C 70.5,43.5 70.5,41.5 70.5,39.5C 61.5,39.5 52.5,39.5 43.5,39.5C 43.5,37.1667 43.5,34.8333 43.5,32.5C 52.5,32.5 61.5,32.5 70.5,32.5C 70.5,30.5 70.5,28.5 70.5,26.5C 70.5,26.1667 70.5,25.8333 70.5,25.5 Z"/></g>
<g><path style="opacity:0.302" fill="#e1e1e1" d="M 85.5,38.5 C 84.0813,39.4511 82.4147,39.7845 80.5,39.5C 80.5,35.1667 80.5,30.8333 80.5,26.5C 78.5,26.5 76.5,26.5 74.5,26.5C 74.5,37.5 74.5,48.5 74.5,59.5C 73.5052,48.3456 73.1719,37.0123 73.5,25.5C 76.1667,25.5 78.8333,25.5 81.5,25.5C 81.5,29.8333 81.5,34.1667 81.5,38.5C 82.8333,38.5 84.1667,38.5 85.5,38.5 Z"/></g>
<g><path style="opacity:0.396" fill="#d7d7d7" d="M 156.5,39.5 C 155.833,46.1667 155.167,52.8333 154.5,59.5C 154.334,52.1591 154.5,44.8258 155,37.5C 155.717,38.0442 156.217,38.7109 156.5,39.5 Z"/></g>
<g><path style="opacity:0.153" fill="#eeeeee" d="M 191.5,32.5 C 198.5,32.5 205.5,32.5 212.5,32.5C 212.5,34.8333 212.5,37.1667 212.5,39.5C 205.5,39.5 198.5,39.5 191.5,39.5C 191.5,37.1667 191.5,34.8333 191.5,32.5 Z M 192.5,33.5 C 192.5,35.1667 192.5,36.8333 192.5,38.5C 198.833,38.5 205.167,38.5 211.5,38.5C 211.5,36.8333 211.5,35.1667 211.5,33.5C 205.167,33.5 198.833,33.5 192.5,33.5 Z"/></g>
<g><path style="opacity:0.006" fill="#fefffe" d="M 208.5,35.5 C 209.302,34.1153 209.969,34.282 210.5,36C 210.167,36.5 209.833,37 209.5,37.5C 209.213,36.7997 208.88,36.1331 208.5,35.5 Z"/></g>
<g><path style="opacity:0.151" fill="#eeeeee" d="M 302.5,32.5 C 309.5,32.5 316.5,32.5 323.5,32.5C 323.5,34.8333 323.5,37.1667 323.5,39.5C 316.5,39.5 309.5,39.5 302.5,39.5C 302.5,37.1667 302.5,34.8333 302.5,32.5 Z M 303.5,33.5 C 303.5,35.1667 303.5,36.8333 303.5,38.5C 309.833,38.5 316.167,38.5 322.5,38.5C 322.5,36.8333 322.5,35.1667 322.5,33.5C 316.167,33.5 309.833,33.5 303.5,33.5 Z"/></g>
<g><path style="opacity:0.306" fill="#d7e1ec" d="M 386.5,37.5 C 386.557,38.609 386.89,39.609 387.5,40.5C 386.508,40.6716 385.842,40.3382 385.5,39.5C 385.328,38.5084 385.662,37.8417 386.5,37.5 Z"/></g>
<g><path style="opacity:0.643" fill="#c3d1e5" d="M 459.5,41.5 C 457.545,40.6765 455.545,40.5099 453.5,41C 454.5,41.3333 455.5,41.6667 456.5,42C 455.069,42.4652 453.903,43.2986 453,44.5C 452.015,43.1859 450.848,42.1859 449.5,41.5C 451.21,39.8004 453.21,38.4671 455.5,37.5C 457.808,37.9655 459.142,39.2988 459.5,41.5 Z"/></g>
<g><path style="opacity:0.784" fill="#7b9fd4" d="M 372.5,39.5 C 365.38,40.9278 358.047,41.5945 350.5,41.5C 350.5,41.1667 350.5,40.8333 350.5,40.5C 357.791,39.6076 365.124,39.2743 372.5,39.5 Z"/></g>
<g><path style="opacity:0.004" fill="#fefffe" d="M 93.5,41.5 C 94.8333,42.1667 94.8333,42.8333 93.5,43.5C 93.5,42.8333 93.5,42.1667 93.5,41.5 Z"/></g>
<g><path style="opacity:0.007" fill="#fefffe" d="M 157.5,41.5 C 158.087,42.7666 158.087,43.7666 157.5,44.5C 156.224,43.3864 156.224,42.3864 157.5,41.5 Z"/></g>
<g><path style="opacity:0.827" fill="#a1a1a1" d="M 158.5,41.5 C 164.167,45.1667 168.833,49.8333 172.5,55.5C 167.5,51.1667 162.833,46.5 158.5,41.5 Z"/></g>
<g><path style="opacity:0.006" fill="#fefffe" d="M 172.5,43.5 C 172.369,42.7611 172.536,42.0944 173,41.5C 173.692,42.4368 173.525,43.1034 172.5,43.5 Z"/></g>
<g><path style="opacity:0.71" fill="#bbcbdf" d="M 338.5,38.5 C 339.105,42.0183 339.105,45.685 338.5,49.5C 337.167,45.8333 337.167,42.1667 338.5,38.5 Z"/></g>
<g><path style="opacity:0.345" fill="#b9b9b9" d="M 329.5,41.5 C 329.167,42.1667 328.833,42.8333 328.5,43.5C 326.207,42.6987 326.54,42.032 329.5,41.5 Z"/></g>
<g><path style="opacity:0.549" fill="#adc1df" d="M 410.5,38.5 C 409.494,39.3957 409.494,40.0623 410.5,40.5C 411.167,41.8333 411.833,41.8333 412.5,40.5C 413.492,40.3284 414.158,40.6618 414.5,41.5C 413.167,41.8333 413.167,42.1667 414.5,42.5C 414.5,42.8333 414.5,43.1667 414.5,43.5C 413.21,44.0577 412.377,45.0577 412,46.5C 411.781,45.062 411.281,43.7287 410.5,42.5C 409.692,42.8076 409.025,43.3076 408.5,44C 409.293,45.0852 409.96,46.2519 410.5,47.5C 410.03,48.463 409.363,48.463 408.5,47.5C 408.565,47.0618 408.399,46.7284 408,46.5C 406.197,50.5116 405.197,50.1782 405,45.5C 404.026,47.8776 403.359,47.5443 403,44.5C 402.667,45.1667 402.333,45.8333 402,46.5C 401.51,45.2068 401.343,43.8734 401.5,42.5C 396.547,42.8772 391.881,42.2105 387.5,40.5C 392.492,40.9992 397.492,41.4992 402.5,42C 403.416,42.3742 404.25,42.8742 405,43.5C 406.076,40.921 407.909,39.2543 410.5,38.5 Z"/></g>
<g><path style="opacity:1" fill="#2351af" d="M 416.5,40.5 C 416.5,41.1667 416.833,41.5 417.5,41.5C 417.5,41.8333 417.5,42.1667 417.5,42.5C 418.11,43.391 418.443,44.391 418.5,45.5C 419.09,46.766 419.59,48.0993 420,49.5C 420.914,48.3463 421.747,48.513 422.5,50C 421.833,50.3333 421.167,50.6667 420.5,51C 422.165,52.8401 424.165,53.5068 426.5,53C 424.19,50.8673 422.524,48.3673 421.5,45.5C 421.737,44.209 421.404,43.209 420.5,42.5C 423.337,40.5977 426.671,39.931 430.5,40.5C 431.167,40.5 431.833,40.5 432.5,40.5C 432.833,40.5 433.167,40.5 433.5,40.5C 436.583,40.916 439.583,41.5826 442.5,42.5C 443.779,43.7152 444.779,43.3818 445.5,41.5C 446.348,40.375 447.348,40.375 448.5,41.5C 448.833,41.5 449.167,41.5 449.5,41.5C 450.848,42.1859 452.015,43.1859 453,44.5C 453.903,43.2986 455.069,42.4652 456.5,42C 455.5,41.6667 454.5,41.3333 453.5,41C 455.545,40.5099 457.545,40.6765 459.5,41.5C 459.5,41.8333 459.5,42.1667 459.5,42.5C 459.587,45.5983 459.087,45.9316 458,43.5C 457.2,46.5723 458.367,48.2389 461.5,48.5C 464.741,49.0374 465.741,50.7041 464.5,53.5C 460.529,52.7955 459.195,54.1289 460.5,57.5C 444.162,57.6668 427.829,58.0002 411.5,58.5C 411.719,57.325 411.386,56.325 410.5,55.5C 408.998,54.9169 407.665,54.0836 406.5,53C 408.192,51.5993 408.859,49.7659 408.5,47.5C 409.363,48.463 410.03,48.463 410.5,47.5C 409.96,46.2519 409.293,45.0852 408.5,44C 409.025,43.3076 409.692,42.8076 410.5,42.5C 411.281,43.7287 411.781,45.062 412,46.5C 412.377,45.0577 413.21,44.0577 414.5,43.5C 415.968,46.2777 416.801,49.2777 417,52.5C 417.927,49.1368 417.427,46.1368 415.5,43.5C 415.5,42.8333 415.167,42.5 414.5,42.5C 414.5,42.1667 414.5,41.8333 414.5,41.5C 414.158,40.6618 413.492,40.3284 412.5,40.5C 411.833,40.5 411.167,40.5 410.5,40.5C 409.494,40.0623 409.494,39.3957 410.5,38.5C 413.08,36.9844 415.08,37.6511 416.5,40.5 Z"/></g>
<g><path style="opacity:0.737" fill="#88a9da" d="M 426.5,43.5 C 429.52,42.528 432.52,43.028 435.5,45C 432.498,44.8416 429.498,44.3416 426.5,43.5 Z"/></g>
<g><path style="opacity:0.557" fill="#c3c3c3" d="M 98.5,59.5 C 93.5584,55.8972 88.8918,51.8972 84.5,47.5C 83.791,46.596 82.791,46.2627 81.5,46.5C 81.8182,51.0323 81.4849,55.3656 80.5,59.5C 80.5,54.8333 80.5,50.1667 80.5,45.5C 82.1992,45.3398 83.8659,45.5065 85.5,46C 90.0367,50.3688 94.3701,54.8688 98.5,59.5 Z"/></g>
<g><path style="opacity:0.56" fill="#bcbcbc" d="M 212.5,59.5 C 211.515,55.3656 211.182,51.0323 211.5,46.5C 205.167,46.5 198.833,46.5 192.5,46.5C 192.818,51.0323 192.485,55.3656 191.5,59.5C 191.5,54.8333 191.5,50.1667 191.5,45.5C 198.5,45.5 205.5,45.5 212.5,45.5C 212.5,50.1667 212.5,54.8333 212.5,59.5 Z"/></g>
<g><path style="opacity:0.56" fill="#c1c1c1" d="M 255.5,59.5 C 253.393,60.4682 251.059,60.8016 248.5,60.5C 248.5,55.8333 248.5,51.1667 248.5,46.5C 242.167,46.5 235.833,46.5 229.5,46.5C 229.818,51.0323 229.485,55.3656 228.5,59.5C 228.5,54.8333 228.5,50.1667 228.5,45.5C 235.5,45.5 242.5,45.5 249.5,45.5C 249.5,50.1667 249.5,54.8333 249.5,59.5C 251.5,59.5 253.5,59.5 255.5,59.5 Z"/></g>
<g><path style="opacity:0.563" fill="#a6a6a6" d="M 302.5,45.5 C 309.5,45.5 316.5,45.5 323.5,45.5C 323.5,48.1667 323.5,50.8333 323.5,53.5C 316.5,53.5 309.5,53.5 302.5,53.5C 302.5,50.8333 302.5,48.1667 302.5,45.5 Z M 303.5,46.5 C 303.5,48.5 303.5,50.5 303.5,52.5C 309.833,52.5 316.167,52.5 322.5,52.5C 322.5,50.5 322.5,48.5 322.5,46.5C 316.167,46.5 309.833,46.5 303.5,46.5 Z"/></g>
<g><path style="opacity:0.537" fill="#bacce5" d="M 414.5,43.5 C 414.833,43.5 415.167,43.5 415.5,43.5C 417.427,46.1368 417.927,49.1368 417,52.5C 416.801,49.2777 415.968,46.2777 414.5,43.5 Z"/></g>
<g><path style="opacity:0.169" fill="#c8d4eb" d="M 427.5,47.5 C 431.919,46.6642 436.252,47.4975 440.5,50C 436.2,49.3453 431.866,48.512 427.5,47.5 Z"/></g>
<g><path style="opacity:0.514" fill="#c2d1e5" d="M 459.5,42.5 C 460.285,44.3736 460.952,46.3736 461.5,48.5C 458.367,48.2389 457.2,46.5723 458,43.5C 459.087,45.9316 459.587,45.5983 459.5,42.5 Z"/></g>
<g><path style="opacity:0.005" fill="#fefffe" d="M 84.5,47.5 C 84.2172,48.2891 83.7172,48.9558 83,49.5C 82.4719,48.184 82.9719,47.5173 84.5,47.5 Z"/></g>
<g><path style="opacity:0.004" fill="#fefffe" d="M 193.5,47.5 C 194.833,48.1667 194.833,48.1667 193.5,47.5 Z"/></g>
<g><path style="opacity:0.004" fill="#fefffe" d="M 209.5,47.5 C 210.833,48.1667 210.833,48.1667 209.5,47.5 Z"/></g>
<g><path style="opacity:0.302" fill="#e3e3e3" d="M 255.5,59.5 C 255.5,48.5 255.5,37.5 255.5,26.5C 253.5,26.5 251.5,26.5 249.5,26.5C 249.5,30.8333 249.5,35.1667 249.5,39.5C 242.5,39.5 235.5,39.5 228.5,39.5C 228.5,35.1667 228.5,30.8333 228.5,26.5C 226.5,26.5 224.5,26.5 222.5,26.5C 222.5,37.5 222.5,48.5 222.5,59.5C 221.505,48.3456 221.172,37.0123 221.5,25.5C 224.167,25.5 226.833,25.5 229.5,25.5C 229.5,29.8333 229.5,34.1667 229.5,38.5C 235.833,38.5 242.167,38.5 248.5,38.5C 248.5,34.1667 248.5,29.8333 248.5,25.5C 251.167,25.5 253.833,25.5 256.5,25.5C 256.828,37.0123 256.495,48.3456 255.5,59.5 Z"/></g>
<g><path style="opacity:0.008" fill="#fefffe" d="M 246.5,36.5 C 247.833,37.1667 247.833,37.1667 246.5,36.5 Z"/></g>
<g><path style="opacity:0.008" fill="#fefffe" d="M 230.5,36.5 C 231.833,37.1667 231.833,37.1667 230.5,36.5 Z"/></g>
<g><path style="opacity:0.008" fill="#fefffe" d="M 230.5,47.5 C 231.833,48.1667 231.833,48.1667 230.5,47.5 Z"/></g>
<g><path style="opacity:0.004" fill="#fefffe" d="M 246.5,47.5 C 247.833,48.1667 247.833,48.1667 246.5,47.5 Z"/></g>
<g><path style="opacity:0.298" fill="#e3e3e3" d="M 266.5,52.5 C 266.167,52.5 265.833,52.5 265.5,52.5C 265.5,43.8333 265.5,35.1667 265.5,26.5C 263.5,26.5 261.5,26.5 259.5,26.5C 259.5,35.8333 259.5,45.1667 259.5,54.5C 258.71,55.6085 258.21,56.9419 258,58.5C 257.927,47.6844 258.093,36.6844 258.5,25.5C 261.167,25.5 263.833,25.5 266.5,25.5C 266.5,34.5 266.5,43.5 266.5,52.5 Z"/></g>
<g><path style="opacity:0.004" fill="#fefffe" d="M 267.5,49.5 C 268.525,49.8966 268.692,50.5632 268,51.5C 267.536,50.9056 267.369,50.2389 267.5,49.5 Z"/></g>
<g><path style="opacity:1" fill="#084bab" d="M 385.5,39.5 C 385.842,40.3382 386.508,40.6716 387.5,40.5C 391.881,42.2105 396.547,42.8772 401.5,42.5C 401.343,43.8734 401.51,45.2068 402,46.5C 402.333,45.8333 402.667,45.1667 403,44.5C 403.359,47.5443 404.026,47.8776 405,45.5C 405.197,50.1782 406.197,50.5116 408,46.5C 408.399,46.7284 408.565,47.0618 408.5,47.5C 408.859,49.7659 408.192,51.5993 406.5,53C 407.665,54.0836 408.998,54.9169 410.5,55.5C 411.386,56.325 411.719,57.325 411.5,58.5C 407.481,58.6458 403.481,58.9791 399.5,59.5C 400.263,58.7321 401.263,58.2321 402.5,58C 400.527,57.5045 398.527,57.3379 396.5,57.5C 396.167,57.5 395.833,57.5 395.5,57.5C 393.167,57.5 390.833,57.5 388.5,57.5C 381.159,57.3337 373.826,57.5003 366.5,58C 364.789,59.7757 362.789,60.9424 360.5,61.5C 359.833,61.5 359.167,61.5 358.5,61.5C 353.632,62.2674 348.798,62.2674 344,61.5C 341.127,61.6054 339.627,60.2721 339.5,57.5C 339.5,57.1667 339.5,56.8333 339.5,56.5C 340.404,55.791 340.737,54.791 340.5,53.5C 341.5,53.5 342.5,53.5 343.5,53.5C 346.787,52.8386 350.12,52.3386 353.5,52C 350.833,51.6667 348.167,51.3333 345.5,51C 357.87,50.9001 367.536,50.4001 374.5,49.5C 375.807,48.1984 375.807,46.865 374.5,45.5C 376.765,44.3526 379.098,44.1859 381.5,45C 379.714,45.1962 378.381,46.0295 377.5,47.5C 380.086,48.48 382.753,48.8134 385.5,48.5C 385.232,50.099 385.566,51.4324 386.5,52.5C 391.257,54.1941 396.257,54.6941 401.5,54C 398.146,53.5448 394.813,53.0448 391.5,52.5C 390.952,50.6064 389.952,48.9397 388.5,47.5C 391.188,46.2026 393.688,46.5359 396,48.5C 397.11,46.7571 398.61,45.4238 400.5,44.5C 396.52,44.0918 392.686,44.0918 389,44.5C 387.4,43.1341 385.567,42.1341 383.5,41.5C 383.855,40.4777 384.522,39.811 385.5,39.5 Z"/></g>
<g><path style="opacity:0.694" fill="#8eaad6" d="M 338.5,50.5 C 338.5,50.1667 338.5,49.8333 338.5,49.5C 350.5,49.5 362.5,49.5 374.5,49.5C 367.536,50.4001 357.87,50.9001 345.5,51C 348.167,51.3333 350.833,51.6667 353.5,52C 350.12,52.3386 346.787,52.8386 343.5,53.5C 341.706,52.7671 340.039,51.7671 338.5,50.5 Z"/></g>
<g><path style="opacity:0.729" fill="#92add6" d="M 418.5,45.5 C 419.167,45.5 419.833,45.5 420.5,45.5C 420.833,46.8333 421.167,46.8333 421.5,45.5C 422.524,48.3673 424.19,50.8673 426.5,53C 424.165,53.5068 422.165,52.8401 420.5,51C 421.167,50.6667 421.833,50.3333 422.5,50C 421.747,48.513 420.914,48.3463 420,49.5C 419.59,48.0993 419.09,46.766 418.5,45.5 Z"/></g>
<g><path style="opacity:0.71" fill="#9c9c9c" d="M 70.5,45.5 C 70.5,45.8333 70.5,46.1667 70.5,46.5C 61.8333,46.5 53.1667,46.5 44.5,46.5C 44.5,48.5 44.5,50.5 44.5,52.5C 53.5,52.5 62.5,52.5 71.5,52.5C 71.8016,55.0593 71.4682,57.3926 70.5,59.5C 70.5,57.5 70.5,55.5 70.5,53.5C 61.5,53.5 52.5,53.5 43.5,53.5C 43.5,50.8333 43.5,48.1667 43.5,45.5C 52.5,45.5 61.5,45.5 70.5,45.5 Z"/></g>
<g><path style="opacity:0.71" fill="#b1b1b1" d="M 92.5,43.5 C 92.8333,43.5 93.1667,43.5 93.5,43.5C 95.9619,46.4639 98.6286,49.2972 101.5,52C 103.791,52.0154 105.958,52.1821 108,52.5C 108.796,55.0385 108.629,57.3718 107.5,59.5C 107.5,57.5 107.5,55.5 107.5,53.5C 100.423,53.4438 95.423,50.1104 92.5,43.5 Z"/></g>
<g><path style="opacity:0.711" fill="#888888" d="M 124.5,52.5 C 120.366,53.4849 116.032,53.8182 111.5,53.5C 111.5,53.1667 111.5,52.8333 111.5,52.5C 116.013,52.2639 120.347,52.2639 124.5,52.5 Z"/></g>
<g><path style="opacity:0.714" fill="#9e9e9e" d="M 131.5,51.5 C 136.07,52.441 140.737,52.7744 145.5,52.5C 145.802,55.0593 145.468,57.3926 144.5,59.5C 144.5,57.5 144.5,55.5 144.5,53.5C 139.968,53.8182 135.634,53.4849 131.5,52.5C 131.5,52.1667 131.5,51.8333 131.5,51.5 Z"/></g>
<g><path style="opacity:0.471" fill="#d9e1ec" d="M 338.5,50.5 C 340.039,51.7671 341.706,52.7671 343.5,53.5C 342.5,53.5 341.5,53.5 340.5,53.5C 340.737,54.791 340.404,55.791 339.5,56.5C 339.167,54.5 338.833,52.5 338.5,50.5 Z"/></g>
<g><path style="opacity:0.306" fill="#eaeaea" d="M 111.5,52.5 C 111.5,52.8333 111.5,53.1667 111.5,53.5C 111.5,55.5 111.5,57.5 111.5,59.5C 110.761,59.631 110.094,59.4643 109.5,59C 110.117,56.723 110.784,54.5563 111.5,52.5 Z"/></g>
<g><path style="opacity:0.525" fill="#a8bcdf" d="M 386.5,52.5 C 388.167,52.5 389.833,52.5 391.5,52.5C 394.813,53.0448 398.146,53.5448 401.5,54C 396.257,54.6941 391.257,54.1941 386.5,52.5 Z"/></g>
<g><path style="opacity:0.006" fill="#fefffe" d="M 36.5,57.5 C 35.475,57.1034 35.3083,56.4368 36,55.5C 36.4643,56.0944 36.631,56.7611 36.5,57.5 Z"/></g>
<g><path style="opacity:0.006" fill="#fefffe" d="M 293.5,55.5 C 294.525,55.8966 294.692,56.5632 294,57.5C 293.536,56.9056 293.369,56.2389 293.5,55.5 Z"/></g>
<g><path style="opacity:1" fill="#6e84c5" d="M 464.5,53.5 C 463.167,54.5 463.167,55.5 464.5,56.5C 463.432,57.4345 462.099,57.7678 460.5,57.5C 459.195,54.1289 460.529,52.7955 464.5,53.5 Z"/></g>
<g><path style="opacity:0.004" fill="#fefffe" d="M 36.5,57.5 C 37.8333,58.1667 37.8333,58.1667 36.5,57.5 Z"/></g>
<g><path style="opacity:0.039" fill="#cbcbcb" d="M 38.5,56.5 C 39.5,56.8333 40.1667,57.5 40.5,58.5C 39.1667,58.5 38.5,57.8333 38.5,56.5 Z"/></g>
<g><path style="opacity:0.039" fill="#cbcbcb" d="M 260.5,56.5 C 261.5,56.8333 262.167,57.5 262.5,58.5C 261.167,58.5 260.5,57.8333 260.5,56.5 Z"/></g>
<g><path style="opacity:0.031" fill="#d0d0d0" d="M 291.5,56.5 C 291.5,57.8333 290.833,58.5 289.5,58.5C 289.833,57.5 290.5,56.8333 291.5,56.5 Z"/></g>
<g><path style="opacity:0.031" fill="#cfcfd0" d="M 328.5,56.5 C 328.5,57.8333 327.833,58.5 326.5,58.5C 326.833,57.5 327.5,56.8333 328.5,56.5 Z"/></g>
<g><path style="opacity:0.516" fill="#b8c6e2" d="M 464.5,56.5 C 465.167,56.8333 465.833,57.1667 466.5,57.5C 466.5,58.5 466.5,59.5 466.5,60.5C 463.813,60.3359 461.146,60.5026 458.5,61C 457.944,61.3826 457.611,61.8826 457.5,62.5C 454.5,62.5 451.5,62.5 448.5,62.5C 448.134,61.3054 447.301,60.6387 446,60.5C 437.542,61.4565 429.042,61.7899 420.5,61.5C 415.438,61.2743 410.438,61.6076 405.5,62.5C 404.5,62.5 403.5,62.5 402.5,62.5C 401.833,62.5 401.167,62.5 400.5,62.5C 396.702,61.5166 392.702,61.1832 388.5,61.5C 390.724,60.0592 393.058,58.7259 395.5,57.5C 395.833,57.5 396.167,57.5 396.5,57.5C 396.973,58.9063 397.973,59.573 399.5,59.5C 403.481,58.9791 407.481,58.6458 411.5,58.5C 427.829,58.0002 444.162,57.6668 460.5,57.5C 462.099,57.7678 463.432,57.4345 464.5,56.5 Z M 448.5,62.5 C 444.833,62.5 441.167,62.5 437.5,62.5C 431.642,62.8222 425.975,62.4889 420.5,61.5C 429.042,61.7899 437.542,61.4565 446,60.5C 447.301,60.6387 448.134,61.3054 448.5,62.5 Z"/></g>
<g><path style="opacity:0.741" fill="#6e97cd" d="M 396.5,57.5 C 398.527,57.3379 400.527,57.5045 402.5,58C 401.263,58.2321 400.263,58.7321 399.5,59.5C 397.973,59.573 396.973,58.9063 396.5,57.5 Z"/></g>
<g><path style="opacity:0.616" fill="#a2a2a2" d="M 174.5,57.5 C 176.874,58.6861 179.208,58.6861 181.5,57.5C 181.25,58.9221 180.417,59.9221 179,60.5C 177.122,59.9473 175.622,58.9473 174.5,57.5 Z"/></g>
<g><path style="opacity:0.279" fill="#dde5f0" d="M 388.5,57.5 C 381.679,58.3285 374.679,58.8285 367.5,59C 374.246,58.8689 380.579,59.7023 386.5,61.5C 386.167,61.5 385.833,61.5 385.5,61.5C 383.952,60.266 383.285,60.266 383.5,61.5C 378.695,62.4872 373.695,62.8205 368.5,62.5C 368.167,61.1667 367.833,61.1667 367.5,62.5C 365.052,63.4731 362.385,63.8064 359.5,63.5C 360.952,62.6981 362.618,62.1981 364.5,62C 363.207,61.51 361.873,61.3433 360.5,61.5C 362.789,60.9424 364.789,59.7757 366.5,58C 373.826,57.5003 381.159,57.3337 388.5,57.5 Z"/></g>
<g><path style="opacity:0.122" fill="#cfdaea" d="M 339.5,57.5 C 339.627,60.2721 341.127,61.6054 344,61.5C 348.798,62.2674 353.632,62.2674 358.5,61.5C 357.048,62.3019 355.382,62.8019 353.5,63C 355.134,63.4935 356.801,63.6602 358.5,63.5C 356.052,64.4731 353.385,64.8064 350.5,64.5C 347.857,63.4931 347.523,63.4931 349.5,64.5C 347.393,65.4682 345.059,65.8016 342.5,65.5C 338.553,64.172 334.553,63.8387 330.5,64.5C 330.5,63.5 330.5,62.5 330.5,61.5C 333.167,61.1667 335.833,60.8333 338.5,60.5C 338.263,59.209 338.596,58.209 339.5,57.5 Z"/></g>
<g><path style="opacity:0.024" fill="#eaeef2" d="M 459.5,62.5 C 466.531,62.5188 466.864,63.0188 460.5,64C 453.508,64.4996 446.508,64.6663 439.5,64.5C 446.167,63.8333 452.833,63.1667 459.5,62.5 Z"/></g>
<g><path style="opacity:1" fill="#435faf" d="M 383.5,61.5 C 384.167,61.5 384.833,61.5 385.5,61.5C 385.833,61.5 386.167,61.5 386.5,61.5C 387.167,61.5 387.833,61.5 388.5,61.5C 392.702,61.1832 396.702,61.5166 400.5,62.5C 396.069,62.2307 391.735,62.564 387.5,63.5C 387.167,63.5 386.833,63.5 386.5,63.5C 373.584,63.7909 360.917,65.1242 348.5,67.5C 347.508,67.3284 346.842,67.6618 346.5,68.5C 341.703,68.8789 337.036,68.3789 332.5,67C 335.726,65.8011 339.059,65.3011 342.5,65.5C 345.059,65.8016 347.393,65.4682 349.5,64.5C 349.833,64.5 350.167,64.5 350.5,64.5C 353.385,64.8064 356.052,64.4731 358.5,63.5C 358.833,63.5 359.167,63.5 359.5,63.5C 362.385,63.8064 365.052,63.4731 367.5,62.5C 367.833,62.5 368.167,62.5 368.5,62.5C 373.695,62.8205 378.695,62.4872 383.5,61.5 Z"/></g>
<g><path style="opacity:0.19" fill="#d5dced" d="M 420.5,61.5 C 425.975,62.4889 431.642,62.8222 437.5,62.5C 431.69,63.4896 425.69,63.8229 419.5,63.5C 415.033,62.1381 413.367,62.1381 414.5,63.5C 408.35,64.5435 402.016,65.2101 395.5,65.5C 396.643,63.8993 395.976,63.2326 393.5,63.5C 386.969,64.7535 386.969,65.4202 393.5,65.5C 391.393,66.4682 389.059,66.8016 386.5,66.5C 381.194,65.6286 380.861,65.6286 385.5,66.5C 381.361,67.5629 377.028,68.2296 372.5,68.5C 371.833,67.1667 371.167,67.1667 370.5,68.5C 369.292,69.2341 367.959,69.5674 366.5,69.5C 363.857,68.4931 363.523,68.4931 365.5,69.5C 365.5,69.8333 365.5,70.1667 365.5,70.5C 363.735,71.4614 361.735,71.7947 359.5,71.5C 357.833,71.5 356.167,71.5 354.5,71.5C 354.158,70.6618 353.492,70.3284 352.5,70.5C 353.952,69.6981 355.618,69.1981 357.5,69C 355.866,68.5065 354.199,68.3398 352.5,68.5C 351.432,67.5655 350.099,67.2322 348.5,67.5C 360.917,65.1242 373.584,63.7909 386.5,63.5C 386.833,64.8333 387.167,64.8333 387.5,63.5C 391.735,62.564 396.069,62.2307 400.5,62.5C 401.167,62.5 401.833,62.5 402.5,62.5C 403.5,63.8333 404.5,63.8333 405.5,62.5C 410.438,61.6076 415.438,61.2743 420.5,61.5 Z M 395.5,65.5 C 394.833,65.5 394.167,65.5 393.5,65.5C 386.969,65.4202 386.969,64.7535 393.5,63.5C 395.976,63.2326 396.643,63.8993 395.5,65.5 Z"/></g>
<g><path style="opacity:0.976" fill="#6076b4" d="M 437.5,62.5 C 441.167,62.5 444.833,62.5 448.5,62.5C 451.5,62.5 454.5,62.5 457.5,62.5C 458.167,62.5 458.833,62.5 459.5,62.5C 452.833,63.1667 446.167,63.8333 439.5,64.5C 419.149,65.9456 398.815,67.6123 378.5,69.5C 374.176,69.9272 369.842,70.2605 365.5,70.5C 365.5,70.1667 365.5,69.8333 365.5,69.5C 365.833,69.5 366.167,69.5 366.5,69.5C 367.959,69.5674 369.292,69.2341 370.5,68.5C 371.167,68.5 371.833,68.5 372.5,68.5C 377.028,68.2296 381.361,67.5629 385.5,66.5C 385.833,66.5 386.167,66.5 386.5,66.5C 389.059,66.8016 391.393,66.4682 393.5,65.5C 394.167,65.5 394.833,65.5 395.5,65.5C 402.016,65.2101 408.35,64.5435 414.5,63.5C 416.167,63.5 417.833,63.5 419.5,63.5C 425.69,63.8229 431.69,63.4896 437.5,62.5 Z"/></g>
<g><path style="opacity:0.643" fill="#c9d3e2" d="M 338.5,70.5 C 338.833,71.1667 339.167,71.8333 339.5,72.5C 336.54,71.968 336.207,71.3013 338.5,70.5 Z"/></g>
<g><path style="opacity:1" fill="#4e67ae" d="M 346.5,68.5 C 348.5,68.5 350.5,68.5 352.5,68.5C 354.199,68.3398 355.866,68.5065 357.5,69C 355.618,69.1981 353.952,69.6981 352.5,70.5C 352.167,70.5 351.833,70.5 351.5,70.5C 349.585,70.2155 347.919,70.5489 346.5,71.5C 344.265,71.2053 342.265,71.5386 340.5,72.5C 340.167,72.5 339.833,72.5 339.5,72.5C 339.167,71.8333 338.833,71.1667 338.5,70.5C 341.28,69.9216 343.947,69.2549 346.5,68.5 Z"/></g>
<g><path style="opacity:0.047" fill="#e5ebf4" d="M 340.5,72.5 C 342.265,71.5386 344.265,71.2053 346.5,71.5C 346.842,72.3382 347.508,72.6716 348.5,72.5C 347.791,73.404 346.791,73.7373 345.5,73.5C 344.081,72.5489 342.415,72.2155 340.5,72.5 Z"/></g>
<g><path style="opacity:0.149" fill="#dde5ee" d="M 346.5,71.5 C 347.919,70.5489 349.585,70.2155 351.5,70.5C 351.842,71.3382 352.508,71.6716 353.5,71.5C 352.791,72.404 351.791,72.7373 350.5,72.5C 349.432,71.5655 348.099,71.2322 346.5,71.5 Z"/></g>
<g><path style="opacity:1" fill="#1c50a7" d="M 353.5,71.5 C 353.833,71.5 354.167,71.5 354.5,71.5C 356.167,71.5 357.833,71.5 359.5,71.5C 355.536,72.7978 351.37,73.7978 347,74.5C 345.93,74.472 345.097,74.1386 344.5,73.5C 344.833,73.5 345.167,73.5 345.5,73.5C 346.791,73.7373 347.791,73.404 348.5,72.5C 349.167,72.5 349.833,72.5 350.5,72.5C 351.791,72.7373 352.791,72.404 353.5,71.5 Z"/></g>
<g><path style="opacity:0.259" fill="#e0e6f0" d="M 378.5,69.5 C 367.165,72.1339 355.665,74.4673 344,76.5C 340.7,74.443 340.867,73.443 344.5,73.5C 345.097,74.1386 345.93,74.472 347,74.5C 351.37,73.7978 355.536,72.7978 359.5,71.5C 361.735,71.7947 363.735,71.4614 365.5,70.5C 369.842,70.2605 374.176,69.9272 378.5,69.5 Z"/></g>
<g><path style="opacity:0.803" fill="#5f5f5f" d="M 256.5,77.5 C 256.5,77.8333 256.5,78.1667 256.5,78.5C 182.167,78.5 107.833,78.5 33.5,78.5C 33.369,77.7611 33.5357,77.0944 34,76.5C 108.096,77.4982 182.262,77.8315 256.5,77.5 Z"/></g>
<g><path style="opacity:1" fill="#000000" d="M 33.5,78.5 C 107.833,78.5 182.167,78.5 256.5,78.5C 182.507,80.4969 108.174,81.1636 33.5,80.5C 33.5,79.8333 33.5,79.1667 33.5,78.5 Z"/></g>
<g><path style="opacity:0.231" fill="#f1f1f1" d="M 256.5,77.5 C 257.434,78.5676 257.768,79.901 257.5,81.5C 182.665,81.8326 107.998,81.4992 33.5,80.5C 108.174,81.1636 182.507,80.4969 256.5,78.5C 256.5,78.1667 256.5,77.8333 256.5,77.5 Z"/></g>
</svg>
